<?xml version="1.0" standalone="no"?>
<!DOCTYPE svg PUBLIC "-//W3C//DTD SVG 20010904//EN"
 "http://www.w3.org/TR/2001/REC-SVG-20010904/DTD/svg10.dtd">
<svg version="1.0" xmlns="http://www.w3.org/2000/svg"
 width="409.000000pt" height="426.000000pt" viewBox="0 0 409.000000 426.000000"
 preserveAspectRatio="xMidYMid meet">

<g transform="translate(0.000000,426.000000) scale(0.100000,-0.100000)"
fill="#000000" stroke="none">
<path d="M3010 3694 c-415 -402 -387 -373 -373 -382 7 -4 47 -16 89 -27 42
-10 79 -25 82 -33 6 -16 -12 -106 -70 -347 -96 -405 -222 -777 -381 -1130
-224 -497 -370 -693 -592 -800 -264 -128 -597 -23 -778 245 -84 123 -139 273
-168 456 -19 119 -16 398 6 524 46 275 177 536 366 730 110 114 226 174 370
191 162 20 291 -9 385 -86 90 -74 218 -306 294 -535 42 -126 110 -388 110
-423 0 -64 67 78 143 303 42 126 40 160 -22 350 -81 249 -157 389 -277 506
-258 256 -738 265 -1095 23 -139 -94 -300 -276 -402 -454 -233 -407 -294
-1063 -141 -1530 118 -359 334 -612 597 -700 339 -113 693 4 1009 334 80 83
283 339 317 400 15 25 25 6 56 -104 68 -247 163 -462 242 -546 72 -77 117 -94
243 -92 147 2 633 92 663 122 6 6 7 29 1 63 l-9 53 -99 12 c-422 53 -682 302
-822 787 l-35 120 110 225 c127 262 257 545 329 716 80 192 150 368 157 397
12 48 24 50 133 16 56 -17 104 -29 107 -26 3 3 -10 61 -29 129 -19 68 -44 165
-56 214 -67 283 -143 581 -149 587 -4 4 -144 -125 -311 -288z"/>
<path d="M1806 2574 c-10 -27 -7 -1392 4 -1399 24 -15 134 117 233 280 l37 61
-2 534 -3 535 -131 3 c-113 2 -132 0 -138 -14z"/>
<path d="M1406 2332 c-3 -5 -6 -286 -8 -625 -2 -496 0 -619 10 -629 17 -17
205 -16 245 0 l27 12 0 619 c0 555 -2 619 -16 625 -24 9 -252 7 -258 -2z"/>
<path d="M1000 1733 l0 -247 44 -91 c25 -49 68 -118 96 -151 57 -70 127 -122
135 -102 3 7 4 198 3 423 l-3 410 -137 3 -138 3 0 -248z"/>
</g>
</svg>
